<svg height="54" width="38" xmlns="http://www.w3.org/2000/svg"><path d="M9 48.587A1.527 1.527 0 0 0 10.328 50h1.52a1.594 1.594 0 0 0 1.402-1.625v-9a11.226 11.226 0 0 1-4.25.819zm3.962-23.023a8.664 8.664 0 0 0-4.781 1.36 11.746 11.746 0 0 0-3.56 3.038 6.458 6.458 0 0 1 2.253 1.063 6.31 6.31 0 0 1 1.817 1.89 7.107 7.107 0 0 1 1.307 3.188 5.079 5.079 0 0 1 0 1.913 3.762 3.762 0 0 1-.202.754 12.438 12.438 0 0 0 3.58-.84l.297-.17a14.323 14.323 0 0 0 2.529-1.986l.106-.128a5.93 5.93 0 0 0 1.7-3.623 6.824 6.824 0 0 0-1.222-4.25c-1.657-1.997-3.06-2.21-3.814-2.21zm2.32 4.505-2.295 1.657a.925.925 0 0 1-1.293-.197v-.005a1.024 1.024 0 0 1 .202-1.37l2.252-1.668a.977.977 0 0 1 1.134 1.583zm-6.177 6.374a7.156 7.156 0 0 0-1.434-3.187 5.98 5.98 0 0 0-1.467-1.604 3.547 3.547 0 0 0-1.646-.68 2.433 2.433 0 0 0-1.37.17 4.675 4.675 0 0 0-2.316 2.39 5.025 5.025 0 0 0-.373 1.593A4.163 4.163 0 0 0 .637 36.4a4.602 4.602 0 0 0 .202.574 6.346 6.346 0 0 0 .723 1.243 5.874 5.874 0 0 0 1.264 1.36 4.356 4.356 0 0 0 2.985.86 4.058 4.058 0 0 0 1.69-.446 2.468 2.468 0 0 0 1.2-1.062 3.63 3.63 0 0 0 .404-2.465zm-5.053 2.338a2.845 2.845 0 0 1-1.827-1.34 2.843 2.843 0 0 1-.574-2.124c.149-.489.712-.478 1.062 0l1.743 2.401c.266.5.064 1.105-.403 1.063zM29 40.183a11.216 11.216 0 0 1-4.25-.807v8.999A1.594 1.594 0 0 0 26.154 50h1.519A1.529 1.529 0 0 0 29 48.608zm-1.062-2.135a5.066 5.066 0 0 1 0-1.86 7.093 7.093 0 0 1 1.306-3.187 6.292 6.292 0 0 1 1.88-1.976 6.458 6.458 0 0 1 2.253-1.063 11.76 11.76 0 0 0-3.559-3.038 8.664 8.664 0 0 0-4.79-1.36c-.765 0-2.125.202-3.836 2.21a6.818 6.818 0 0 0-1.222 4.25 5.926 5.926 0 0 0 1.7 3.623l.107.127a14.244 14.244 0 0 0 2.528 1.987l.298.17a12.428 12.428 0 0 0 3.58.84 3.729 3.729 0 0 1-.245-.713zm-1.617-6.535a.924.924 0 0 1-1.291.207l-2.31-1.651a.975.975 0 0 1 1.12-1.588l2.252 1.668a.946.946 0 0 1 .255 1.307zm10.775 2.062a4.687 4.687 0 0 0-2.284-2.36 2.436 2.436 0 0 0-1.37-.17 3.538 3.538 0 0 0-1.647.68 5.95 5.95 0 0 0-1.467 1.605 7.134 7.134 0 0 0-1.434 3.187 3.605 3.605 0 0 0 .382 2.465 2.458 2.458 0 0 0 1.2 1.063 4.037 4.037 0 0 0 1.711.393 4.356 4.356 0 0 0 2.975-.85 5.903 5.903 0 0 0 1.275-1.37 6.436 6.436 0 0 0 .712-1.243 4.952 4.952 0 0 0 .202-.574 4.199 4.199 0 0 0 .149-1.275 4.852 4.852 0 0 0-.404-1.551zm-1.32 3.91a2.91 2.91 0 0 1-1.859 1.338c-.467 0-.669-.563-.36-1.062l1.742-2.401c.308-.51.87-.52 1.062 0a2.853 2.853 0 0 1-.584 2.124z" fill="currentColor"/><path d="M0 0h38v54H0z" fill="none"/></svg>
