<svg height="54" width="32" xmlns="http://www.w3.org/2000/svg"><path d="M7.378 17.711c-2.74.1-4.633 1.867-6.253 3.591-.724.771-.548 1.34-.548 2.945 0 2.173-.047 2.434.573 3.37a7.581 7.581 0 0 0 6.228 3.625c4.173.322 7.774-3.02 7.774-6.757s-3.592-6.926-7.774-6.774zM3.58 26.546a.687.687 0 1 1-1.374 0v-4.038a.687.687 0 0 1 1.374 0zm7.984-2.025a1.04 1.04 0 0 1-1.038 1.037H8.282a1.04 1.04 0 0 1-1.037-1.037v-.129a1.04 1.04 0 0 1 1.037-1.037h2.244a1.04 1.04 0 0 1 1.037 1.037zM7.79 32.647A8.005 8.005 0 0 0 13 31.215V48.2A2.13 2.13 0 0 1 11.088 50h-1.77a1.736 1.736 0 0 1-1.528-1.544s.013-15.795 0-15.809zm9.114-8.162c0 3.736 3.601 7.079 7.774 6.757a7.581 7.581 0 0 0 6.228-3.626c.62-.935.573-1.196.573-3.369 0-1.605.176-2.174-.548-2.945-1.62-1.724-3.512-3.49-6.253-3.59-4.183-.153-7.774 3.036-7.774 6.773zm11.328-1.977a.687.687 0 0 1 1.374 0v4.038a.687.687 0 1 1-1.374 0zm-7.74 1.884a1.04 1.04 0 0 1 1.038-1.037h2.243a1.04 1.04 0 0 1 1.038 1.037v.129a1.04 1.04 0 0 1-1.038 1.037H21.53a1.04 1.04 0 0 1-1.038-1.037zm3.66 24.064c0 .713-1.06 1.544-1.786 1.544h-1.77A1.824 1.824 0 0 1 19 48.2V31.214a7.847 7.847 0 0 0 5.153 1.432c-.004.019 0 15.809 0 15.809z" fill="currentColor"/><path d="M0 0h32v54H0z" fill="none"/></svg>
