<svg xmlns="http://www.w3.org/2000/svg" viewBox="0 0 4724.54 446.59"><defs><style>.cls-1{fill:#1d1d1b;}</style></defs><g id="Designed_by" data-name="Designed by"><path class="cls-1" d="M2345.46,393.17a1.38,1.38,0,0,0-.55-1.19,2.51,2.51,0,0,0-1.49-.39h-.88v3.15h.88a2.44,2.44,0,0,0,1.49-.4A1.36,1.36,0,0,0,2345.46,393.17Z"/><path class="cls-1" d="M2303.59,391.59h-1.72v7.2h1.72a4,4,0,0,0,2.83-1,3.72,3.72,0,0,0,0-5.2A3.93,3.93,0,0,0,2303.59,391.59Z"/><path class="cls-1" d="M2392.7,76.51c42.58,41.9,99.74,27.33,99.74,27.33-13-37.58-70.14-83.35-106.34-83.8C2352.69,19.62,2346,2.93,2345.21.35,2352.6,25,2350.32,34.81,2392.7,76.51Z"/><path class="cls-1" d="M2345.21.35c0-.12-.07-.23-.1-.35S2345.14.13,2345.21.35Z"/><path class="cls-1" d="M2478.77,41.67c15.72,26.64,43.5,67.63,120,67.63,0,0-13-61.71-63.08-81.06S2476,12.07,2445.3,14.35C2445.3,14.35,2463.06,15,2478.77,41.67Z"/><path class="cls-1" d="M2505,128.43c-18.79,7.12-37.8,16.4-53.74,41.67s-14.12,35.75-14.12,35.75,17.07-.73,25.73-2c22.55-3.41,52.15-16.39,59.21-22.09s34.38-30.28,45.54-50.09C2567.58,131.62,2523,121.6,2505,128.43Z"/><path class="cls-1" d="M2577.37,171.24c-30.91,27.15-28.35,67.29-28.35,67.29,9.44-5.66,16.13-6.92,19.66-7.11a45.74,45.74,0,0,0,13.07-2.47c7.9-2.86,20.48-8.86,38-21.5,32.62-23.57,45.6-63.54,45.6-63.54C2608.46,139.47,2608.29,144.09,2577.37,171.24Z"/><path class="cls-1" d="M2700.85,240.07c17.93-21.18,13-24.08,33.82-61.32,0,0-30.4-2.22-44.41,13.5s-9.22,47.3-55,62C2635.27,254.24,2682.92,261.24,2700.85,240.07Z"/><path class="cls-1" d="M2724.46,59.58c.15-.83.24-1.29.24-1.29A4.94,4.94,0,0,0,2724.46,59.58Z"/><path class="cls-1" d="M2834,226.36h0Z"/><path class="cls-1" d="M2757.06,313c2.84,1.18,29.78,10.95,49.39-34.95,20-46.87,27.08-51.43,27.53-51.68-.25.13-8,4.25-23.43,14.1a73.4,73.4,0,0,0-16.39,14.1,59.31,59.31,0,0,0,0-6.67c10.4-5.64,29.33-21.48,12.09-57.41-22.88-47.7-17.42-64.44-17.42-64.44-13.66,16.63-13.66,51.35-7.17,72.53a79.91,79.91,0,0,1,3.57,19c-5.56-10.75-12.78-20-18.94-27.18-1-1.17-2.07-2.32-3.16-3.47l.08.07c7.29-13.21,11.62-37.6-15.7-77.68-22.18-32.52-23.36-45.85-23-49.72-1.48,8.2-8.89,53.42,4.23,73,14.46,21.52,12.08,36.09,12.08,36.09l.05,0c-16.67-11.1-37.22-20.86-59.6-30.25a182.38,182.38,0,0,0,28.23,5.5s-2-47.13-42.81-76.73-50.56-30.75-82.89-31.88c0,0,15,3.06,21.4,25.66s25.87,45.48,40.77,59.73a56.24,56.24,0,0,0,11.24,8.11c-47.37-16.23-162.45-24.5-162.45-24.5s14,4.78,67.29,13,83.35,13.67,111,24.25,46.11,18.79,65.93,35.19c1.78,1.47,3.47,2.88,5.1,4.25-.58,3.3-5,29.47-2.49,39.91,2.74,11.16,11.39,27.1,19.36,34.47S2774.35,278,2774.35,278s7.74-7.52,9.56-21-.91-19.81-6.49-32.79-13.55-18.9-19.89-24.6c-5-4.51-7.68-11.72-8.57-14.53,13.49,11.71,21.83,21,31.65,39,7.7,14.13,9.53,29.05,3.48,44.31-1.49,2.35-3,4.77-4.51,7.26-8.16,13.24-22.22,26.52-23.09,27.33a184.64,184.64,0,0,1-17.55,12.64c-2.76,1.77-5.49,3.45-8.22,5.09a27,27,0,0,0,3-3.15c5.37-6.71,14.83-20.74,13.31-34.85-1.79-16.62-1.79-38.48-1.79-38.48s-11,15.48-20.07,27.55-7.4,23.05-7.63,37.4a96.14,96.14,0,0,1-2.18,20.15c-19.16,10-38.41,17.31-60.38,23.74a79.2,79.2,0,0,0,8.71-8.88c5.36-6.21,5.69-6.6,11.38-15.94,5.8-9.5,3.42-25.05,2.73-31.2s2.05-18,2.05-18a40.29,40.29,0,0,1-13.43,10.93c-7.45,3.91-20.35,22.39-22.09,41-1.34,14.34-5.61,23.35-7.77,27.12-16.84,4.33-35.42,8.46-56.67,13,12.85-4.54,26.19-12.7,30.46-28,6.31-22.71,15.19-31.08,15.19-31.08s-6.88,1.59-10,3.47c-6.6,4-8.48,1.14-14.8,4.51-18.41,9.83-25.1,25.83-27.67,31.81s-17.38,24.4-17.4,24.42c-28.16,5.79-49,9.27-66.41,11.39,2-.74,4.8-1.81,8.61-3.36A41.52,41.52,0,0,0,2523,355c3.19-13.89,13.44-23.68,13.44-23.68a118.45,118.45,0,0,0-13,7.06c-11,6.83-11.85,2.05-21.18,8.65s-10.62,13.69-15.71,22.32c-5.52,9.35-12.78,19.75-13,20-19.58,1.67-35.91,1.68-56.71,1.84l-6,0,9.43-4c6.49-2.73,14.52-13.32,16.57-22.71s12.29-18.28,12.29-18.28-29.54,8-35.35,22.21c-5.36,13.09-15.86,21.64-17.43,22.86-17.88.11-21,.07-21.4.05v-3.24a7,7,0,0,0-7-7H2300.1a7,7,0,0,0-7,7v3.16c-.43.05-3.52.12-21.41,0-1.6-1.24-12.07-9.78-17.42-22.85-5.81-14.18-35.35-22.21-35.35-22.21s10.24,8.88,12.29,18.28,10.08,20,16.57,22.71l9.43,4-6,0c-20.81-.16-37.14-.17-56.71-1.84-.19-.28-7.45-10.68-13-20-5.1-8.63-6.38-15.71-15.72-22.32s-10.13-1.82-21.17-8.65a119.56,119.56,0,0,0-13-7.06s10.24,9.79,13.43,23.68a41.52,41.52,0,0,0,25.05,29.38c3.81,1.55,6.59,2.62,8.62,3.36-17.45-2.12-38.26-5.6-66.42-11.39,0,0-14.84-18.45-17.4-24.42s-9.26-22-27.67-31.81c-6.32-3.37-8.2-.47-14.8-4.51-3.07-1.88-10-3.47-10-3.47s8.88,8.37,15.2,31.08c4.26,15.32,17.6,23.48,30.45,28-21.25-4.57-39.83-8.7-56.67-13-2.16-3.77-6.43-12.78-7.77-27.12-1.74-18.59-14.64-37.07-22.09-41a40.29,40.29,0,0,1-13.43-10.93s2.73,11.84,2,18-3.07,21.7,2.73,31.2c5.69,9.34,6,9.73,11.38,15.94a79.2,79.2,0,0,0,8.71,8.88c-22-6.43-41.22-13.75-60.37-23.74a95.9,95.9,0,0,1-2.19-20.15c-.23-14.35,1.48-25.33-7.63-37.4s-20.06-27.55-20.06-27.55,0,21.86-1.8,38.48c-1.52,14.11,7.94,28.14,13.31,34.85a27,27,0,0,0,3,3.15c-2.72-1.64-5.46-3.32-8.21-5.09a184.85,184.85,0,0,1-17.56-12.64c-.86-.81-14.93-14.09-23.09-27.33-1.54-2.49-3-4.91-4.51-7.26-6.05-15.26-4.22-30.18,3.48-44.31,9.82-18,18.16-27.31,31.65-39-.89,2.81-3.54,10-8.57,14.53-6.34,5.7-14.3,11.62-19.88,24.6s-8.32,19.35-6.5,32.79,9.57,21,9.57,21,5.46-15.32,13.43-22.69,16.62-23.31,19.36-34.47c2.56-10.44-1.91-36.61-2.49-39.91,1.63-1.37,3.33-2.78,5.11-4.25,19.81-16.4,38.25-24.6,65.92-35.19s57.72-16,111-24.25,67.29-13,67.29-13-115.08,8.27-162.45,24.5a56,56,0,0,0,11.25-8.11c14.89-14.25,34.38-37.12,40.76-59.73s21.4-25.66,21.4-25.66c-32.33,1.13-42.12,2.27-82.89,31.88s-42.81,76.73-42.81,76.73a182.38,182.38,0,0,0,28.23-5.5c-22.38,9.39-42.92,19.15-59.59,30.25l0,0s-2.38-14.57,12.08-36.09c13.13-19.53,5.71-64.75,4.23-72.95.34,3.87-.84,17.2-23,49.72-27.33,40.08-23,64.47-15.71,77.68l.08-.07c-1.09,1.15-2.15,2.3-3.16,3.47-6.16,7.15-13.38,16.43-18.94,27.18a79.91,79.91,0,0,1,3.57-19c6.49-21.18,6.49-55.9-7.17-72.53,0,0,5.46,16.74-17.42,64.44-17.24,35.93,1.69,51.77,12.09,57.41a61.78,61.78,0,0,0,0,6.67,73.4,73.4,0,0,0-16.39-14.1c-15.45-9.85-23.18-14-23.43-14.1.45.25,7.51,4.81,27.53,51.68,19.61,45.9,46.56,36.13,49.39,34.95h0a214.26,214.26,0,0,0,28.3,17.57l-.31-.16c-27.5,1.37-25.6-2.56-45.24-9.39s-51.06,3.93-51.06,3.93,12.47,1.19,22.71,4.78,16.51,9.15,25.23,14.34,17.12,8.25,32.84,7.52c14.69-.68,29.66-14.08,29.66-14.08l-.23-.11c24.31,11.59,52.73,22.16,80.12,30.44h-.06c-17.59-.68-32.81-2.24-54.84,9s-35.52,9.74-35.52,9.74c10.59,5.46,26,9.73,34.33,10.25s26.47,0,36-10.18c8.9-9.47,21-17,22.67-18.05,8,2.39,15.93,4.59,23.61,6.55,13.56,3.45,26.15,6.42,38.43,9l-.23,0s-8.65,7.6-27.95,9.31S2031,403,2022.32,418.37c0,0,12.81-4.79,26.13-2.57s25.79-2.22,33.48-4.1,23-11,28.51-25a722.83,722.83,0,0,0,74.59,10h0c-10.25,3.95-26.27,13.6-41.3,30.2s-24.82,18.69-24.82,18.69c19.36,3.65,43-3.41,53.29-16.85,9.52-12.47,17.85-29.2,19-31.52,6.43.52,13.09,1,20.06,1.48,18.39,1.21,33.09,1.86,44.66,2.16C2250,404.29,2234,414,2225.44,424c-10.58,12.41-19.92,15.6-19.92,15.6s10.25,5.35,25.16-.8,17.19-11.86,22-19.18c3.67-5.63,9.3-15,11.43-18.55,21.11.31,29-.63,29-.63v3.31a7,7,0,0,0,7,7h67.81a7,7,0,0,0,7-7v-3.31s7.88.94,29,.63c2.13,3.56,7.76,12.92,11.44,18.55,4.78,7.32,7.06,13,22,19.18s25.16.8,25.16.8-9.33-3.19-19.92-15.6c-8.54-10-24.54-19.71-30.43-23.1,11.57-.3,26.27-.95,44.66-2.16,7-.47,13.63-1,20.06-1.48,1.14,2.32,9.48,19.05,19,31.52,10.25,13.44,33.93,20.5,53.29,16.85,0,0-9.79-2.08-24.82-18.69s-31.05-26.25-41.3-30.2h0a723.41,723.41,0,0,0,74.6-10c5.47,14,20.82,23.1,28.5,25s20.16,6.32,33.48,4.1,26.13,2.57,26.13,2.57c-8.71-15.38-27.84-23.23-47.14-24.94s-28-9.31-28-9.31l-.23,0c12.28-2.57,24.88-5.54,38.43-9,7.68-2,15.6-4.16,23.62-6.55,1.64,1,13.76,8.58,22.66,18.05,9.56,10.18,27.67,10.69,36,10.18s23.74-4.79,34.32-10.25c0,0-13.49,1.54-35.52-9.74s-37.25-9.71-54.84-9H2635c27.39-8.28,55.82-18.85,80.13-30.44l-.24.11s15,13.4,29.66,14.08c15.72.73,24.25-2.39,32.85-7.52s15-10.76,25.22-14.34,22.71-4.78,22.71-4.78-31.42-10.76-51.06-3.93-17.74,10.76-45.24,9.39l-.31.16A214.26,214.26,0,0,0,2757,313Zm-449.8,85.51a5.28,5.28,0,0,1-3.67,1.28h-2.85v-9.19h2.85a5.26,5.26,0,0,1,3.67,1.3,4.3,4.3,0,0,1,1.42,3.32A4.23,4.23,0,0,1,2307.26,398.5Zm10.65-6.91h-3.83v2.85h3.71v1h-3.71v3.36h3.83v1h-5v-9.19h5Zm9,7.6a3.12,3.12,0,0,1-2.14.75,3,3,0,0,1-2.13-.76,2.93,2.93,0,0,1-1-2h1.23a2,2,0,0,0,.61,1.33,1.87,1.87,0,0,0,1.3.45,2,2,0,0,0,1.3-.4,1.54,1.54,0,0,0,0-2.23,4.8,4.8,0,0,0-1.34-.74l-.76-.29c-1.42-.54-2.12-1.38-2.12-2.51a2.15,2.15,0,0,1,.79-1.73,3.08,3.08,0,0,1,2-.66,2.73,2.73,0,0,1,1.88.66,3.15,3.15,0,0,1,1,1.79h-1.21a1.67,1.67,0,0,0-1.74-1.42,1.8,1.8,0,0,0-1.12.33,1.08,1.08,0,0,0-.44.88,1.29,1.29,0,0,0,.36.95,3.21,3.21,0,0,0,1.12.67l.76.29a7.71,7.71,0,0,1,.89.4,5.54,5.54,0,0,1,.76.53,1.91,1.91,0,0,1,.59.76,2.37,2.37,0,0,1,.2,1A2.44,2.44,0,0,1,2326.9,399.19Zm10.08-7.6h-3.84v2.85h3.71v1h-3.71v3.36H2337v1h-5v-9.19h5Zm9.81,8.19-3.23-4h-1v4h-1.13v-9.19h2a3.36,3.36,0,0,1,2.42.75,2.41,2.41,0,0,1,.78,1.83,2.15,2.15,0,0,1-.51,1.48,3.19,3.19,0,0,1-1.32.86l3.41,4.27Zm7.53.42-4.26-9.61h1.25l3.06,7,3.05-7h1.12Zm12.95-8.61h-3.84v2.85h3.72v1h-3.72v3.36h3.84v1h-5v-9.19h5Z"/><path class="cls-1" d="M2322.8.35c.07-.22.1-.35.1-.35S2322.84.23,2322.8.35Z"/><path class="cls-1" d="M2175.57,103.84s57.16,14.57,99.74-27.33C2317.7,34.81,2315.41,25,2322.8.35c-.83,2.58-7.48,19.27-40.88,19.69C2245.71,20.49,2188.55,66.26,2175.57,103.84Z"/><path class="cls-1" d="M2189.24,41.67C2205,15,2222.71,14.35,2222.71,14.35c-30.74-2.28-40.3-5.47-90.4,13.89s-63.08,81.06-63.08,81.06C2145.74,109.3,2173.53,68.31,2189.24,41.67Z"/><path class="cls-1" d="M2146,181.71c7.06,5.7,36.66,18.68,59.21,22.09,8.66,1.32,25.73,2,25.73,2s1.82-10.47-14.12-35.75-34.95-34.55-53.74-41.67c-18-6.83-62.62,3.19-62.62,3.19C2111.59,151.43,2138.91,176,2146,181.71Z"/><path class="cls-1" d="M2048.28,207.45c17.5,12.64,30.08,18.64,38,21.5a45.61,45.61,0,0,0,13.06,2.47c3.53.19,10.22,1.45,19.66,7.11,0,0,2.56-40.14-28.35-67.29s-31.08-31.77-88-27.33C2002.68,143.91,2015.66,183.88,2048.28,207.45Z"/><path class="cls-1" d="M1933.35,178.75c20.83,37.24,15.88,40.14,33.81,61.32s65.58,14.17,65.58,14.17c-45.77-14.69-41-46.28-55-62S1933.35,178.75,1933.35,178.75Z"/><path class="cls-1" d="M1943.55,59.58a4.94,4.94,0,0,0-.24-1.29S1943.4,58.75,1943.55,59.58Z"/><path class="cls-1" d="M1834,226.36h0Z"/><path class="cls-1" d="M3210.71,211.19q0,35.24-25.18,57.93t-64.74,22.7h-50.16V129.69h50.16q39.77,0,64.85,22.92T3210.71,211.19Zm-120.19,63.12h30.27q31.13,0,49.93-17.73t18.81-45.82q0-28.11-18.7-45.83t-50-17.73h-30.27Z"/><path class="cls-1" d="M3371.33,215.08h-65.5v59.23h67.66v17.51h-87.55V129.69h87.55V147.2h-67.66v50.37h65.5Z"/><path class="cls-1" d="M3490.87,194.11l13.4,5.19a120.9,120.9,0,0,1,15.67,7.13,95.91,95.91,0,0,1,13.41,9.19,36.08,36.08,0,0,1,10.37,13.51,43,43,0,0,1,3.57,17.73q0,21.18-15.13,34.48t-37.83,13.29q-22.7,0-37.62-13.4t-17.07-35.45h21.61q2,15.35,10.81,23.34t22.92,8q14,0,22.91-7t8.86-20.22q0-12.1-8.1-19.13T3495,217.67l-13.41-5.18q-37.4-14.28-37.39-44.32,0-18.58,14.05-30.37T3493.9,126q20.1,0,33.29,11.78t17.07,31.45h-21.4q-6.48-25.06-30.69-25.07-12.12,0-19.78,5.94a18.67,18.67,0,0,0-7.68,15.46q0,10.36,6.38,16.86T3490.87,194.11Z"/><path class="cls-1" d="M3707.69,215.08h-65.5v59.23h67.66v17.51H3622.3V129.69h87.55V147.2h-67.66v50.37h65.5Z"/><path class="cls-1" d="M3880.19,175.09q0,16-9.08,26.15a54.77,54.77,0,0,1-23.34,15.14l60.31,75.44H3883l-57.07-71.55H3808v71.55H3788.1V129.69h35.67q29,0,42.7,13.08A42.89,42.89,0,0,1,3880.19,175.09Zm-56.64-27.89H3808v55.56h15.56q16.65,0,26.27-6.92t9.62-20.75q0-14.06-9.62-21T3823.55,147.2Z"/><path class="cls-1" d="M3962.77,129.69l53.83,122.79,53.83-122.79h19.88l-74.58,169.48-75-169.48Z"/><path class="cls-1" d="M4242.06,215.08h-65.5v59.23h67.66v17.51h-87.54V129.69h87.54V147.2h-67.66v50.37h65.5Z"/><path class="cls-1" d="M4317.29,290a15.9,15.9,0,0,1,0-22.69,16,16,0,1,1,0,22.69Z"/><path class="cls-1" d="M4512.71,175.09q0,16-9.08,26.15a54.86,54.86,0,0,1-23.35,15.14l60.31,75.44h-25.07l-57.07-71.55h-17.94v71.55h-19.89V129.69h35.67q29,0,42.69,13.08A42.87,42.87,0,0,1,4512.71,175.09Zm-56.64-27.89h-15.56v55.56h15.56q16.65,0,26.26-6.92t9.62-20.75q0-14.06-9.62-21T4456.07,147.2Z"/><path class="cls-1" d="M4628.79,266.1q12.1,10.59,31.35,10.59t31.34-10.59q12.11-10.59,12.11-29.84V129.69h19.88V234.54q0,27.89-17.29,44t-46,16.1q-28.76,0-46.05-16.1t-17.29-44V129.69h19.89V236.26Q4616.69,255.51,4628.79,266.1Z"/><path class="cls-1" d="M116.28,226.7l20.48,5.17q-6.45,25.23-23.17,38.47t-40.9,13.25q-25,0-40.69-10.19T8.14,243.9A105.32,105.32,0,0,1,0,202.42q0-24.16,9.24-42.17a63.26,63.26,0,0,1,26.28-27.34A76.85,76.85,0,0,1,73,123.57q23.22,0,39.06,11.82t22.06,33.25L114,173.39q-5.38-16.87-15.62-24.59t-25.76-7.71q-17.83,0-29.82,8.55a45.11,45.11,0,0,0-16.83,23,92.36,92.36,0,0,0-4.86,29.71q0,19.74,5.75,34.47t17.89,22A50.27,50.27,0,0,0,71,266.07q17.2,0,29.13-9.92T116.28,226.7Z"/><path class="cls-1" d="M216.67,126.21h94.15V262.69h13.93v54.36H306.49V281H204.21v36.1H186V262.69h12q18.67-28.18,18.68-113.89Zm73.67,18.26H236.41v7.92q0,19.74-3.54,54T219,262.69h71.35Z"/><path class="cls-1" d="M394.85,281V126.21H506.74v18.26H415.33v47.4h85.6V210h-85.6v52.67h95V281Z"/><path class="cls-1" d="M595.3,126.21h96.9V281H671.72V144.47H615.78v79.69q0,24.28-2.27,35.58T604,277.31q-7.29,6.29-18.47,6.28a64.63,64.63,0,0,1-16.26-2.53l3.48-18.16a23.26,23.26,0,0,0,8.66,2.11q7,0,10.45-5.22t3.48-24.65Z"/><path class="cls-1" d="M754.27,281,813.7,126.21h22.06L899.09,281H875.76l-18-46.86H793L776,281Zm44.65-63.54h52.46l-16.15-42.85q-7.38-19.53-11-32.09A198.19,198.19,0,0,1,815.92,172Z"/><path class="cls-1" d="M961.48,281V126.21H982v63.54h80.43V126.21h20.48V281h-20.48V208H982V281Z"/><path class="cls-1" d="M1156.13,205.59q0-38.53,20.69-60.33t53.41-21.79q21.42,0,38.63,10.24a66.84,66.84,0,0,1,26.23,28.55q9,18.31,9,41.53,0,23.55-9.5,42.12A64.87,64.87,0,0,1,1267.7,274a76.89,76.89,0,0,1-37.58,9.55q-21.86,0-39-10.55A68.05,68.05,0,0,1,1165,244.22,87.32,87.32,0,0,1,1156.13,205.59Zm21.11.31q0,28,15,44.07t37.74,16.1q23.12,0,38-16.26T1283,203.69q0-18.9-6.38-33a49.1,49.1,0,0,0-18.69-21.85,50.65,50.65,0,0,0-27.6-7.76A52.35,52.35,0,0,0,1192.91,156Q1177.24,171,1177.24,205.9Z"/><path class="cls-1" d="M1480.51,281V126.21h58q17.73,0,28.45,4.7a36.59,36.59,0,0,1,16.78,14.46,38.09,38.09,0,0,1,6.07,20.42,35.08,35.08,0,0,1-5.38,18.69q-5.38,8.76-16.26,14.14,14,4.11,21.59,14a37.6,37.6,0,0,1,7.54,23.43,45.24,45.24,0,0,1-4.59,20.22q-4.59,9.33-11.34,14.4a47.53,47.53,0,0,1-17,7.66q-10.18,2.58-25,2.58ZM1501,191.23h33.46q13.6,0,19.52-1.79,7.82-2.33,11.77-7.71t4-13.51a24.9,24.9,0,0,0-3.69-13.56,18.71,18.71,0,0,0-10.56-8q-6.85-2.17-23.54-2.17H1501Zm0,71.46h38.52a87.59,87.59,0,0,0,13.93-.74,33.34,33.34,0,0,0,11.83-4.22,22.48,22.48,0,0,0,7.81-8.6,27,27,0,0,0,3.06-13,25.75,25.75,0,0,0-4.43-15,23.38,23.38,0,0,0-12.3-9q-7.86-2.6-22.64-2.59H1501Z"/></g></svg>