<svg xmlns="http://www.w3.org/2000/svg" viewBox="0 0 996.05 276.39"><path d="M204.71.5H72.54A71.37 71.37 0 0 0 1.17 71.87v132.18a71.37 71.37 0 0 0 71.37 71.37h132.17a71.37 71.37 0 0 0 71.38-71.36V71.87A71.38 71.38 0 0 0 204.71.5ZM65.94 152.37a25.25 25.25 0 0 1-10.68 2.91 27 27 0 0 1-18.87-5.61 37.76 37.76 0 0 1-8-8.87 41.42 41.42 0 0 1-4.57-8.1 32.29 32.29 0 0 1-1.27-3.7 28 28 0 0 1-.87-8.31A33.38 33.38 0 0 1 24 110.26a30.1 30.1 0 0 1 14.67-15.58 14.92 14.92 0 0 1 8.67-1.11A22.2 22.2 0 0 1 57.75 98 38.7 38.7 0 0 1 67 108.46a47.3 47.3 0 0 1 9.07 20.78v.13a24.32 24.32 0 0 1-2.55 16.07 15.76 15.76 0 0 1-7.58 6.93ZM102.29 207a10.3 10.3 0 0 1-8.87 10.6h-9.61a9.83 9.83 0 0 1-8.39-9.21v-54.71a69 69 0 0 0 26.87-5.33Zm30.08-106.58A39.12 39.12 0 0 1 121.62 124l-.67.83a90.46 90.46 0 0 1-16 13l-1.88 1.1a76.46 76.46 0 0 1-22.63 5.47 25.16 25.16 0 0 0 1.28-4.91 34.39 34.39 0 0 0 0-12.47 47.17 47.17 0 0 0-8.27-20.78A40.46 40.46 0 0 0 62 93.92 40.32 40.32 0 0 0 47.74 87a74.93 74.93 0 0 1 22.5-19.81 53.63 53.63 0 0 1 30.22-8.86h.07c4.77 0 13.63 1.38 24.11 14.4a45.57 45.57 0 0 1 7.73 27.7Zm39.8 37.4a90.46 90.46 0 0 1-16-13l-.67-.83a39.2 39.2 0 0 1-10.75-23.62 45.52 45.52 0 0 1 7.72-27.71c10.82-13.09 19.41-14.4 24.25-14.4A53.52 53.52 0 0 1 207 67.18 74.78 74.78 0 0 1 229.52 87a45.09 45.09 0 0 0-26.12 19.8 46.92 46.92 0 0 0-8.26 20.78 33.81 33.81 0 0 0 0 12.12v.07a24.55 24.55 0 0 0 1.55 4.64 76.83 76.83 0 0 1-22.64-5.47Zm29.68 70.71a9.86 9.86 0 0 1-8.39 9.07h-9.6A10.29 10.29 0 0 1 175 207v-58.65a68.75 68.75 0 0 0 26.86 5.27ZM254.64 129a32.92 32.92 0 0 1-1.27 3.74 42.54 42.54 0 0 1-4.5 8.11 38.3 38.3 0 0 1-8.06 8.93 27 27 0 0 1-18.81 5.5 24.87 24.87 0 0 1-10.81-2.57 15.72 15.72 0 0 1-7.59-6.92 24.17 24.17 0 0 1-2.42-16.07 47.3 47.3 0 0 1 9.07-20.78 38.42 38.42 0 0 1 9.27-10.45 22 22 0 0 1 10.41-4.44 15.06 15.06 0 0 1 8.66 1.11A30.18 30.18 0 0 1 253 110.54a32.41 32.41 0 0 1 2.55 10.11 27.67 27.67 0 0 1-.91 8.35Z"/><path d="m183.47 88.21-14.24-10.87a6 6 0 0 0-7.91 1.4 6.49 6.49 0 0 0 .83 9l14.61 10.76a5.72 5.72 0 0 0 8-1.16l.14-.19.16-.37a6.27 6.27 0 0 0-1.59-8.57ZM35.68 121.9c-2.22-3.12-5.78-3.19-6.72 0a19 19 0 0 0 3.63 13.85 18 18 0 0 0 11.55 8.72c3 .28 4.23-3.67 2.54-6.92Zm206 .28-11 15.65c-1.95 3.25-.68 6.92 2.28 6.92a18.45 18.45 0 0 0 11.73-8.75 19 19 0 0 0 3.7-13.84c-1.21-3.38-4.77-3.31-6.72.02ZM108 77.36 93.73 88.24a6.81 6.81 0 0 0-1.28 8.93 5.73 5.73 0 0 0 8 1.42l.19-.14 14.51-10.81a6.49 6.49 0 0 0 1.3-8.11 6.08 6.08 0 0 0-8.3-2.25ZM421.83 123.88q0 18.15-10.52 28.47t-29.22 10.33q-20.11 0-31.63-12.29t-11.52-33.88q0-21.29 11.46-33.45t31.26-12.18q15.64 0 26.51 8.37A32.61 32.61 0 0 1 421 101.07h-18.79a20 20 0 0 0-7.48-10.88 21.59 21.59 0 0 0-13-3.94q-11.12 0-17.38 7.94t-6.28 22.07q0 14.38 6.56 22.69t17.78 8.3q9.19 0 15-5.1a17.85 17.85 0 0 0 6.11-13.35l.07-1.41h-19.5v-13.53h37.75Zm56.31 16.61h16.71a23 23 0 0 1-10 15.83q-8.5 6-21 6-15.59 0-24.55-9.28t-9-25.46q0-16.17 8.91-25.73t23.93-9.56q14.78 0 23.5 9.1t8.73 24.53v5.54h-47.15v1.1q0 7.32 4.41 11.84a15.37 15.37 0 0 0 11.54 4.52 17.05 17.05 0 0 0 8.91-2.24 11.08 11.08 0 0 0 5.06-6.19Zm-14.77-34.81a14.17 14.17 0 0 0-10.37 4.06 16 16 0 0 0-4.63 10.58h29.5a15.33 15.33 0 0 0-4.23-10.64 13.91 13.91 0 0 0-10.27-4ZM510 78.38h18.13v15.07h12.66V107h-12.66v32.89q0 7.76 8.13 7.75a27.45 27.45 0 0 0 4.53-.31v13.28a45.09 45.09 0 0 1-8.75.74q-11.87 0-16.95-4.3T510 142.88V107h-9.26V93.45H510Zm42.46-6h37.38q13.85 0 22.45 8.36t8.6 22q0 13.59-8.88 22t-23.1 8.39h-17.7v28h-18.75Zm18.75 14.7v31.54h13.6q8.07 0 12.54-4.12t4.48-11.68c0-5-1.49-8.93-4.44-11.66s-7.14-4.08-12.51-4.08Zm88.42 75.19Q644 162.31 635 153t-9.06-25.7q0-16.17 9.12-25.58t24.59-9.41q15.52 0 24.62 9.38t9.09 25.61q0 16.41-9 25.73t-24.73 9.28Zm-11.27-19.4a14.16 14.16 0 0 0 22.51 0q4-5.55 4-15.64t-4.06-15.59a14 14 0 0 0-22.48 0q-4.07 5.63-4.07 15.59t4.1 15.68ZM728.49 162q-12.79 0-20.4-9.38t-7.61-25.36q0-15.87 7.64-25.21t20.43-9.35a24.33 24.33 0 0 1 12.82 3.3 20.13 20.13 0 0 1 8.1 9h.37V68.18H768v93h-17.91v-11.59h-.31a19.74 19.74 0 0 1-8.19 9 25.18 25.18 0 0 1-13.1 3.41Zm6-54.79a13.48 13.48 0 0 0-11.27 5.44Q719 118.1 719 127.32t4.24 14.68a14.34 14.34 0 0 0 22.51 0q4.21-5.48 4.22-14.63t-4.22-14.67a13.49 13.49 0 0 0-11.24-5.54Zm44.91 6.16a18.16 18.16 0 0 1 7.82-15.31q7.83-5.78 20.8-5.78 12.68 0 20.43 5.87a19.13 19.13 0 0 1 7.95 15.59h-16.77a8.41 8.41 0 0 0-3.47-6.36 13.67 13.67 0 0 0-8.39-2.37 13.82 13.82 0 0 0-7.88 2 6.06 6.06 0 0 0-3 5.25q0 5 9.13 7.07l12.85 2.77q10.3 2.34 14.74 6.58t4.44 11.81q0 9.84-8.32 15.83t-21.79 6q-13.35 0-21.45-5.87a20.35 20.35 0 0 1-8.79-15.77h17.7a9.43 9.43 0 0 0 4 6.61q3.36 2.31 9 2.31 5.4 0 8.5-1.94a5.94 5.94 0 0 0 3.1-5.26 5 5 0 0 0-2-4.18 17.94 17.94 0 0 0-6.61-2.64l-12.61-2.83q-19.37-4.36-19.38-19.38ZM866.14 159a10.12 10.12 0 0 1-14.14 0 9.86 9.86 0 0 1-.06-13.94l.06-.06a10.09 10.09 0 0 1 14.16 0 9.89 9.89 0 0 1 0 14Zm16.7 2.15v-67.7h17.51v12.11h.37a16.57 16.57 0 0 1 21.4-12.23v15.92a16 16 0 0 0-6.52-1.11c-4.59 0-8.18 1.34-10.74 4s-3.86 6.38-3.86 11.13v37.88Zm111-67.7v67.7h-17.5v-12.24H976a20.12 20.12 0 0 1-8.16 9.81 25 25 0 0 1-13.32 3.41q-11.24 0-18-6.79t-6.8-18.48V93.45h18.13v39.66q0 6.76 3.6 10.42t10 3.66a13.63 13.63 0 0 0 10.3-4.19q4-4.19 4-11V93.45ZM507.12 214.47h-4.6V196.3h-6.42v-3.79h17.46v3.79h-6.44ZM535.19 214.47h-4.6v-9.25h-9.89v9.25h-4.6v-22h4.6v8.92h9.89v-8.92h4.6ZM553.39 210.67v3.8h-14.55v-22h14.55v3.79h-9.95v5.29h9.39v3.53h-9.39v5.55ZM568 214.47h-4.59v-22h14.38v3.79H568v5.89h8.94v3.63H568ZM585.1 192.51v13.74a4.67 4.67 0 0 0 1.21 3.4 5.19 5.19 0 0 0 6.78 0 4.67 4.67 0 0 0 1.21-3.4v-13.74h4.6v14.2a7.55 7.55 0 0 1-2.5 5.9 11.14 11.14 0 0 1-13.4 0 7.55 7.55 0 0 1-2.5-5.9v-14.2ZM612.48 214.47h-4.6V196.3h-6.42v-3.79h17.46v3.79h-6.44ZM626.05 192.51v13.74a4.71 4.71 0 0 0 1.21 3.4 4.52 4.52 0 0 0 3.41 1.26 4.45 4.45 0 0 0 3.38-1.26 4.67 4.67 0 0 0 1.21-3.4v-13.74h4.6v14.2a7.55 7.55 0 0 1-2.5 5.9 11.14 11.14 0 0 1-13.4 0 7.55 7.55 0 0 1-2.5-5.9v-14.2ZM648.11 206.43v8h-4.6v-22h9.07a8.53 8.53 0 0 1 5.86 1.86 6.55 6.55 0 0 1 2.09 5.14 7 7 0 0 1-1.06 3.83 5.9 5.9 0 0 1-2.93 2.41l4.63 8.72H656l-4.09-8Zm0-10.33v7h4a3.72 3.72 0 0 0 2.7-.93 3.37 3.37 0 0 0 1-2.57 3.33 3.33 0 0 0-1-2.55 3.81 3.81 0 0 0-2.71-1ZM678.09 210.67v3.8h-14.55v-22h14.55v3.79h-10v5.29h9.39v3.53h-9.39v5.55ZM701.26 199.46l-4.17 15h-4.34l-5.81-22h4.76l3.46 15.9h.12l4.11-15.9h3.88l4.11 15.9h.12l3.47-15.9h4.77l-5.83 22h-4.34l-4.17-15ZM722.8 214.47h-4.6v-22h4.6ZM731.05 206.43v8h-4.6v-22h9.07a8.49 8.49 0 0 1 5.85 1.86 6.52 6.52 0 0 1 2.1 5.14 7.11 7.11 0 0 1-1.06 3.83 5.94 5.94 0 0 1-2.93 2.41l4.63 8.72h-5.21l-4.09-8Zm0-10.33v7h4a3.72 3.72 0 0 0 2.7-.93 3.37 3.37 0 0 0 1-2.57 3.34 3.34 0 0 0-1-2.55 3.78 3.78 0 0 0-2.7-1ZM761 210.67v3.8h-14.52v-22H761v3.79h-9.95v5.29h9.39v3.53h-9.39v5.55ZM778.55 210.67v3.8h-14.2v-22H769v18.16ZM795.83 210.67v3.8h-14.55v-22h14.55v3.79h-10v5.29h9.39v3.53h-9.39v5.55ZM798.32 208.21h4.43a2.91 2.91 0 0 0 1.42 2.17 5.54 5.54 0 0 0 3.12.83 5.18 5.18 0 0 0 3-.78 2.33 2.33 0 0 0 1.15-2 2.05 2.05 0 0 0-.85-1.72 7.57 7.57 0 0 0-2.85-1.1l-2.86-.62q-6-1.31-6-6.14a5.9 5.9 0 0 1 2.35-4.87 11 11 0 0 1 12.12 0 6 6 0 0 1 2.33 4.8h-4.3a2.84 2.84 0 0 0-1.23-2.18 4.75 4.75 0 0 0-2.85-.8 4.66 4.66 0 0 0-2.75.74 2.31 2.31 0 0 0-1 2 1.94 1.94 0 0 0 .84 1.63 7.76 7.76 0 0 0 2.75 1.06l2.66.56a9.63 9.63 0 0 1 4.81 2.19 5.33 5.33 0 0 1 1.51 4 6.08 6.08 0 0 1-2.52 5.02 12.17 12.17 0 0 1-12.82.11 6 6 0 0 1-2.46-4.9ZM818 208.21h4.43a2.91 2.91 0 0 0 1.42 2.17 5.54 5.54 0 0 0 3.12.83 5.16 5.16 0 0 0 3-.78 2.33 2.33 0 0 0 1.15-2 2.05 2.05 0 0 0-.85-1.72 7.57 7.57 0 0 0-2.85-1.1l-2.86-.62q-6-1.31-6-6.14a5.9 5.9 0 0 1 2.35-4.87 11 11 0 0 1 12.12 0 6 6 0 0 1 2.33 4.8H831a2.81 2.81 0 0 0-1.23-2.18 4.75 4.75 0 0 0-2.85-.8 4.66 4.66 0 0 0-2.75.74 2.31 2.31 0 0 0-1 2 1.94 1.94 0 0 0 .84 1.63 7.76 7.76 0 0 0 2.75 1.06l2.66.56a9.63 9.63 0 0 1 4.81 2.19 5.33 5.33 0 0 1 1.51 4 6.08 6.08 0 0 1-2.41 5.08 12.17 12.17 0 0 1-12.82.11 6 6 0 0 1-2.51-4.96Z"/></svg>
