<svg height="54" width="34" xmlns="http://www.w3.org/2000/svg"><path d="M28.107 19.924a16.48 16.48 0 0 0-11.139-3.856 16.676 16.676 0 0 0-11.03 3.825 13.703 13.703 0 0 1 11.03-5.645h.064a14.039 14.039 0 0 1 11.075 5.676zm5.891 9.451a20.918 20.918 0 0 0-.01-.36l-2.125.111c.003.276.001.484.012.614.015.186.056.23.208.22s.284-.012.284-.012.003.672.003 1.445a.918.918 0 0 0 .198.644l-.073-.04a1.76 1.76 0 0 0-1.113-.084 4.253 4.253 0 0 0-.814.345 3.233 3.233 0 0 1-.448 2.17c-.744 1.513-4.474 9.52-6.324 12.084a5.674 5.674 0 0 1-1.554 1.627 5.064 5.064 0 0 0 .115.741 1.624 1.624 0 0 0 1.234 1.097c1.529.251 2.95-1.636 3.496-2.442s1.456-2.265 3.36-5.778c1.6-2.95 3.249-6.583 3.174-7.922a2.828 2.828 0 0 0-.375-1.236 1.37 1.37 0 0 0-.386-.386.591.591 0 0 0 .122.016c.153 0 .62-.1.62-.814s-.017-1.532-.017-1.532l.23-.012c.152-.007.185-.087.185-.305 0-.057 0-.121-.002-.19zM4.092 22.028a14.888 14.888 0 0 0 .755-1.857c1.486-3.008 6.228-6.765 12.12-6.765h.066c5.892 0 10.634 3.757 12.12 6.765a14.856 14.856 0 0 0 .755 1.857 14.344 14.344 0 0 1 1.927 6.257l2.105-.11a16.216 16.216 0 0 0-2.405-7.527 13.051 13.051 0 0 0-.939-1.151 16.388 16.388 0 0 0-13.563-7.392l-.033.001h-.033a16.387 16.387 0 0 0-13.563 7.39 12.971 12.971 0 0 0-.94 1.152A16.216 16.216 0 0 0 .06 28.176l2.105.11a14.344 14.344 0 0 1 1.927-6.258zm7.234 15.594a54.439 54.439 0 0 0-3.772-6.46 2.335 2.335 0 0 0-2.795-.569 3.336 3.336 0 0 0-.362.304c-.65.767-.555 1.667.056 2.91.744 1.512 4.474 9.519 6.323 12.084.918 1.272 1.65 2.003 2.79 1.904a1.57 1.57 0 0 0 .957-.432 2.655 2.655 0 0 0 .535-1.645 5.673 5.673 0 0 0-.843-2.442c-.124-.248-2.418-4.687-2.889-5.654zm-1.185 8.89c-1.849-2.564-5.579-10.571-6.323-12.084a3.233 3.233 0 0 1-.448-2.17 4.26 4.26 0 0 0-.814-.345 1.797 1.797 0 0 0-1.08.072.997.997 0 0 0 .153-.592c0-.774.003-1.445.003-1.445s.133.003.285.012.192-.034.207-.22c.01-.13.009-.338.012-.613l-2.124-.111a18.99 18.99 0 0 0-.01.36c-.003.1 0 .187 0 .26.004.165.05.228.182.234l.23.012s-.017.818-.017 1.533.467.814.62.814l.04-.003a1.371 1.371 0 0 0-.365.373 2.832 2.832 0 0 0-.375 1.236c-.075 1.339 1.574 4.971 3.174 7.922 1.904 3.513 2.814 4.972 3.36 5.778s1.967 2.693 3.496 2.442a1.623 1.623 0 0 0 1.233-1.097 5.038 5.038 0 0 0 .116-.74 5.673 5.673 0 0 1-1.555-1.628zm19.344-12.706c.61-1.242.706-2.142.056-2.91a3.357 3.357 0 0 0-.362-.303 2.336 2.336 0 0 0-2.795.57 54.473 54.473 0 0 0-3.773 6.459c-.47.967-2.764 5.405-2.888 5.653a5.676 5.676 0 0 0-.843 2.443 2.654 2.654 0 0 0 .536 1.644 1.567 1.567 0 0 0 .956.433c1.14.099 1.872-.633 2.79-1.905 1.849-2.564 5.579-10.57 6.323-12.084z" fill="currentColor"/><path d="M.061 0H33.94v54H.06z" fill="none"/></svg>
