<svg xmlns="http://www.w3.org/2000/svg" viewBox="0 0 996.05 276.39"><path d="M204.71.5H72.54A71.37 71.37 0 0 0 1.17 71.87v132.18a71.37 71.37 0 0 0 71.37 71.37h132.17a71.37 71.37 0 0 0 71.38-71.37V71.87A71.38 71.38 0 0 0 204.71.5ZM65.94 152.37a25.18 25.18 0 0 1-10.68 2.91 27 27 0 0 1-18.87-5.61 37.77 37.77 0 0 1-8-8.87 41.35 41.35 0 0 1-4.57-8.1 31.11 31.11 0 0 1-1.27-3.7 28 28 0 0 1-.87-8.31A33.56 33.56 0 0 1 24 110.26a30.09 30.09 0 0 1 14.67-15.58 14.94 14.94 0 0 1 8.67-1.11A22.17 22.17 0 0 1 57.75 98 38.64 38.64 0 0 1 67 108.46a47.29 47.29 0 0 1 9.07 20.78v.13a24.29 24.29 0 0 1-2.55 16.07 15.76 15.76 0 0 1-7.58 6.93ZM102.29 207a10.3 10.3 0 0 1-8.87 10.6h-9.61a9.83 9.83 0 0 1-8.39-9.21v-54.71a69 69 0 0 0 26.87-5.33Zm30.08-106.58A39.14 39.14 0 0 1 121.62 124l-.67.83a90.73 90.73 0 0 1-16 13l-1.88 1.1a76.45 76.45 0 0 1-22.63 5.47 25 25 0 0 0 1.28-4.91 34.39 34.39 0 0 0 0-12.47 47.12 47.12 0 0 0-8.27-20.78A40.48 40.48 0 0 0 62 93.92 40.41 40.41 0 0 0 47.74 87a75 75 0 0 1 22.5-19.81 53.62 53.62 0 0 1 30.22-8.86h.07c4.77 0 13.63 1.38 24.11 14.4a45.54 45.54 0 0 1 7.73 27.7Zm39.8 37.4a91 91 0 0 1-16-13l-.67-.83a39.17 39.17 0 0 1-10.75-23.62 45.55 45.55 0 0 1 7.72-27.71c10.82-13.09 19.41-14.4 24.25-14.4A53.53 53.53 0 0 1 207 67.18 74.94 74.94 0 0 1 229.52 87a45.08 45.08 0 0 0-26.12 19.8 46.9 46.9 0 0 0-8.26 20.78 33.81 33.81 0 0 0 0 12.12v.07a24.55 24.55 0 0 0 1.55 4.64 76.75 76.75 0 0 1-22.64-5.47Zm29.68 70.71a9.85 9.85 0 0 1-8.39 9.07h-9.6A10.28 10.28 0 0 1 175 207v-58.65a68.89 68.89 0 0 0 26.86 5.27ZM254.64 129a32.92 32.92 0 0 1-1.27 3.74 42.48 42.48 0 0 1-4.5 8.11 38.14 38.14 0 0 1-8.06 8.93 27 27 0 0 1-18.81 5.5 24.83 24.83 0 0 1-10.81-2.57 15.7 15.7 0 0 1-7.59-6.92 24.14 24.14 0 0 1-2.42-16.07 47.29 47.29 0 0 1 9.07-20.78 38.32 38.32 0 0 1 9.27-10.45 22 22 0 0 1 10.41-4.44 15.07 15.07 0 0 1 8.66 1.11A30.14 30.14 0 0 1 253 110.54a32.34 32.34 0 0 1 2.55 10.11 27.72 27.72 0 0 1-.91 8.35Z"/><path d="m183.47 88.21-14.24-10.87a6 6 0 0 0-7.91 1.4 6.49 6.49 0 0 0 .83 9l14.61 10.76a5.73 5.73 0 0 0 8.16-1.35l.16-.37a6.28 6.28 0 0 0-1.61-8.57ZM35.68 121.9c-2.22-3.12-5.78-3.19-6.72 0a19 19 0 0 0 3.63 13.85 18 18 0 0 0 11.55 8.72c3 .28 4.23-3.67 2.54-6.92ZM241.67 122.18l-11 15.65c-1.95 3.25-.68 6.92 2.28 6.92a18.42 18.42 0 0 0 11.74-8.75 19 19 0 0 0 3.7-13.84c-1.21-3.38-4.77-3.31-6.72.02ZM108 77.36 93.73 88.24a6.81 6.81 0 0 0-1.28 8.93 5.73 5.73 0 0 0 8.17 1.28l14.51-10.81a6.49 6.49 0 0 0 1.3-8.11 6.08 6.08 0 0 0-8.43-2.17Z"/><path d="M421.83 123.88q0 18.15-10.52 28.47t-29.22 10.33q-20.11 0-31.63-12.29t-11.52-33.88q0-21.29 11.46-33.45t31.26-12.18q15.64 0 26.51 8.37A32.59 32.59 0 0 1 421 101.07h-18.79a20 20 0 0 0-7.48-10.88 21.6 21.6 0 0 0-13-3.94q-11.12 0-17.38 7.94t-6.28 22.07q0 14.38 6.56 22.69t17.78 8.3q9.19 0 15-5.1a17.86 17.86 0 0 0 6.11-13.35l.07-1.41h-19.5v-13.53h37.75ZM478.14 140.49h16.71a23 23 0 0 1-10 15.83q-8.5 6-21 6-15.58 0-24.55-9.28t-9-25.46q0-16.17 8.91-25.73t23.93-9.56q14.77 0 23.5 9.1t8.73 24.53v5.54h-47.15v1.1q0 7.32 4.41 11.84a15.39 15.39 0 0 0 11.54 4.52 17.09 17.09 0 0 0 8.91-2.24 11.12 11.12 0 0 0 5.06-6.19Zm-14.77-34.81a14.18 14.18 0 0 0-10.37 4.06 16 16 0 0 0-4.63 10.58h29.5a15.31 15.31 0 0 0-4.23-10.64 13.91 13.91 0 0 0-10.27-4ZM510 78.38h18.13v15.07h12.66V107h-12.66v32.89q0 7.75 8.13 7.75a27.73 27.73 0 0 0 4.53-.31v13.28a44.86 44.86 0 0 1-8.75.74q-11.87 0-16.95-4.3T510 142.88V107h-9.26V93.45H510ZM552.46 72.42h37.38q13.85 0 22.45 8.36t8.6 22q0 13.59-8.88 22t-23.1 8.39h-17.7v28h-18.75Zm18.75 14.7v31.54h13.6q8.07 0 12.54-4.12t4.48-11.68c0-5-1.49-8.93-4.44-11.66s-7.14-4.08-12.51-4.08ZM659.63 162.31Q644 162.31 635 153t-9.06-25.7q0-16.17 9.12-25.58t24.59-9.41q15.52 0 24.62 9.38t9.09 25.61q0 16.41-9 25.73t-24.73 9.28Zm-11.27-19.4a14.16 14.16 0 0 0 22.51 0q4-5.55 4-15.64t-4.06-15.59a14 14 0 0 0-22.48 0q-4.07 5.63-4.07 15.59t4.1 15.64ZM728.49 162q-12.79 0-20.4-9.38t-7.61-25.36q0-15.87 7.64-25.21t20.43-9.35a24.34 24.34 0 0 1 12.82 3.3 20.13 20.13 0 0 1 8.1 9h.37V68.18H768v93h-17.91v-11.59h-.31a19.76 19.76 0 0 1-8.19 9 25.16 25.16 0 0 1-13.1 3.41Zm6-54.79a13.48 13.48 0 0 0-11.27 5.44q-4.18 5.45-4.19 14.67t4.21 14.68a14.34 14.34 0 0 0 22.51 0q4.21-5.47 4.22-14.63t-4.22-14.67a13.48 13.48 0 0 0-11.24-5.54ZM779.4 113.37a18.14 18.14 0 0 1 7.82-15.31q7.83-5.78 20.8-5.78 12.68 0 20.43 5.87a19.12 19.12 0 0 1 7.95 15.59h-16.77a8.4 8.4 0 0 0-3.47-6.36 13.69 13.69 0 0 0-8.39-2.37 13.86 13.86 0 0 0-7.88 2 6.06 6.06 0 0 0-3 5.25q0 5 9.13 7.07l12.85 2.77q10.3 2.34 14.74 6.58t4.44 11.81q0 9.84-8.32 15.83t-21.79 6q-13.35 0-21.45-5.87a20.37 20.37 0 0 1-8.79-15.77h17.7a9.44 9.44 0 0 0 4 6.61q3.36 2.31 9 2.31 5.4 0 8.5-1.94a5.94 5.94 0 0 0 3.11-5.26 5 5 0 0 0-2-4.18 17.89 17.89 0 0 0-6.61-2.64l-12.61-2.83q-19.38-4.37-19.39-19.38ZM866.14 159a10.12 10.12 0 0 1-14.14 0 9.86 9.86 0 0 1 0-14 10.09 10.09 0 0 1 14.16 0 9.89 9.89 0 0 1 0 14ZM882.84 161.15v-67.7h17.51v12.11h.37a18 18 0 0 1 6-9.56 18.08 18.08 0 0 1 15.4-2.67v15.92a15.9 15.9 0 0 0-6.52-1.11c-4.59 0-8.18 1.34-10.74 4s-3.86 6.38-3.86 11.13v37.88ZM993.85 93.45v67.7h-17.51v-12.24H976a20.09 20.09 0 0 1-8.16 9.81 25 25 0 0 1-13.32 3.41q-11.24 0-18-6.79t-6.8-18.48V93.45h18.13v39.66q0 6.76 3.6 10.42t10 3.66a13.65 13.65 0 0 0 10.3-4.19q4-4.19 4-11V93.45ZM505.12 207.85h4.59a2.91 2.91 0 0 0 1.48 2.16 6 6 0 0 0 3.23.83 5.58 5.58 0 0 0 3.09-.78 2.33 2.33 0 0 0 1.19-2 2 2 0 0 0-.88-1.71 7.88 7.88 0 0 0-3-1.09l-3-.62q-6.27-1.29-6.27-6.1a5.77 5.77 0 0 1 2.44-4.84 10.07 10.07 0 0 1 6.28-1.85 10.18 10.18 0 0 1 6.3 1.79 5.88 5.88 0 0 1 2.42 4.78h-4.47a2.77 2.77 0 0 0-1.27-2.17 5.14 5.14 0 0 0-3-.8 5 5 0 0 0-2.86.74 2.28 2.28 0 0 0-1.08 2 1.88 1.88 0 0 0 .88 1.62 8 8 0 0 0 2.85 1.06l2.77.56a10.27 10.27 0 0 1 5 2.17 5.23 5.23 0 0 1 1.56 4 6 6 0 0 1-2.49 5 13.11 13.11 0 0 1-13.31.11 5.91 5.91 0 0 1-2.45-4.86ZM540.85 214.07l-1.74-5.29h-8l-1.74 5.29h-4.89l7.91-21.83H538l7.93 21.83Zm-5.8-17.66-2.92 9h6l-2.92-9ZM557.75 214.07H552l-7.66-21.83h5.34l5.21 17.13h.11l5.22-17.13h5.19ZM582.84 210.29v3.78h-15.1v-21.83h15.1V196h-10.33v5.26h9.74v3.51h-9.74v5.51ZM617.37 192.24v21.83h-4.25v-14.74H613l-6.19 14.53h-3l-6.19-14.53h-.13v14.74h-4.25v-21.83h5.53l6.48 15.48h.12l6.48-15.48ZM623.41 194.9a12.14 12.14 0 0 1 16.07 0 13 13 0 0 1 0 16.51 12.13 12.13 0 0 1-16.06 0 13 13 0 0 1 0-16.51Zm12.49 2.8a5.91 5.91 0 0 0-8.92 0 9.8 9.8 0 0 0 0 10.9 5.94 5.94 0 0 0 8.93 0 9.78 9.78 0 0 0 0-10.9ZM650.07 214.07h-4.57v-21.83h4l10.64 14.22h.13v-14.22h4.57v21.83h-4l-10.67-14.3h-.14ZM683.72 210.29v3.78h-15.1v-21.83h15.1V196h-10.33v5.26h9.74v3.51h-9.74v5.51ZM698.41 214.07h-4.77v-8.15l-7.93-13.68h5.2l5.1 9.32h.11l5.12-9.32h5.12l-8 13.68ZM708.84 218.18h-3.49l1.31-8.19H711ZM741.73 214.07H737v-9.2h-10.31v9.2h-4.77v-21.83h4.77v8.87H737v-8.87h4.77ZM747.77 194.9a12.13 12.13 0 0 1 16.06 0 13 13 0 0 1 0 16.51 12.13 12.13 0 0 1-16.06 0 13 13 0 0 1 0-16.51Zm12.49 2.8a5.91 5.91 0 0 0-8.92 0 9.75 9.75 0 0 0 0 10.9 5.94 5.94 0 0 0 8.93 0 9.78 9.78 0 0 0 0-10.9ZM774.43 214.07h-4.57v-21.83h4l10.65 14.22h.13v-14.22h4.56v21.83h-3.95l-10.66-14.3h-.14ZM808.08 210.29v3.78H793v-21.83h15.11V196h-10.37v5.26h9.75v3.51h-9.75v5.51ZM822.77 214.07H818v-8.15l-7.93-13.68h5.19l5.11 9.32h.11l5.11-9.32h5.12l-7.94 13.68Z"/></svg>
